<svg version="1.1" id="Layer_1" xmlns="http://www.w3.org/2000/svg" xmlns:xlink="http://www.w3.org/1999/xlink" x="0px" y="0px"
	 width="100%" viewBox="0 0 1024 512" enable-background="new 0 0 1024 512" xml:space="preserve">
<path fill="#FFFFFF" opacity="1.000000" stroke="none" 
	d="
M668.000000,513.000000 
	C445.369446,513.000000 223.238922,513.000000 1.054187,513.000000 
	C1.054187,342.397217 1.054187,171.794418 1.054187,1.095813 
	C342.213928,1.095813 683.427856,1.095813 1024.820923,1.095813 
	C1024.820923,171.666519 1024.820923,342.333252 1024.820923,513.000000 
	C906.127625,513.000000 787.313782,513.000000 668.000000,513.000000 
M10.997158,303.500000 
	C10.997158,318.757111 10.997158,334.014191 10.997158,349.174500 
	C42.640961,349.174500 73.676537,349.174500 104.914268,349.174500 
	C104.914268,325.937286 104.887482,303.115997 104.923698,280.294769 
	C104.947777,265.118408 114.766373,255.337830 129.955399,255.243927 
	C138.618912,255.190384 147.309860,255.555222 155.940659,254.995071 
	C180.279358,253.415466 199.398041,231.795486 198.796921,206.979431 
	C198.194427,182.106766 177.549286,161.337875 153.096542,161.005112 
	C128.661743,160.672592 109.663994,176.919083 105.263351,201.911072 
	C97.763893,244.501816 55.050900,266.994995 15.978124,248.948395 
	C14.582693,248.303879 13.076779,247.898560 10.997158,247.159607 
	C10.997158,266.213470 10.997158,284.356720 10.997158,303.500000 
M377.061523,324.499237 
	C381.291138,331.857697 385.478210,339.241272 389.793457,346.549194 
	C390.488678,347.726501 391.732910,349.403564 392.760956,349.430817 
	C401.459137,349.661377 410.166016,349.562439 419.547791,349.562439 
	C406.668274,327.455231 394.295471,306.217773 381.825592,284.813690 
	C384.727112,283.410736 387.328125,282.341461 389.746185,280.953522 
	C406.399963,271.394562 413.924622,256.772369 413.192047,237.806992 
	C412.496338,219.796524 404.334045,206.351486 387.984314,198.345200 
	C379.146606,194.017487 369.621674,192.631927 359.840302,192.647156 
	C338.853638,192.679840 317.866852,192.645355 296.880127,192.662872 
	C295.622284,192.663910 294.364624,192.880508 293.107880,192.996719 
	C293.107880,245.257004 293.107880,297.174164 293.107880,349.343201 
	C301.071533,349.343201 308.821991,349.343201 317.044098,349.343201 
	C317.044098,339.009186 317.044098,328.894196 317.044098,318.779205 
	C317.044098,308.663544 317.044098,298.547913 317.044098,287.938873 
	C328.938141,287.938873 340.384583,288.088013 351.822784,287.846313 
	C355.172638,287.775513 356.824799,288.955994 358.386383,291.776672 
	C364.350220,302.549225 370.590210,313.168884 377.061523,324.499237 
M683.907166,321.567932 
	C691.689148,336.902863 703.834412,346.964050 720.698364,350.426575 
	C740.052124,354.400269 757.685730,350.987854 772.544800,334.902222 
	C772.544800,340.472809 772.544800,344.848999 772.544800,349.340027 
	C780.378418,349.340027 787.618713,349.340027 794.945496,349.340027 
	C794.945496,295.066406 794.945496,241.047348 794.945496,187.070770 
	C787.351501,187.070770 780.106812,187.070770 772.346313,187.070770 
	C772.346313,208.900879 772.346313,230.427765 772.346313,252.559738 
	C771.350769,251.851273 770.952637,251.641312 770.645508,251.338943 
	C743.505676,224.622971 696.396545,234.124802 682.217163,269.419525 
	C675.311157,286.609772 675.995117,303.922089 683.907166,321.567932 
M884.026550,237.428238 
	C864.716003,234.020889 847.091370,237.527679 832.440674,251.111786 
	C813.524292,268.650909 809.059937,299.177643 821.533569,322.495239 
	C833.469055,344.806641 859.613770,356.320984 885.457153,350.482910 
	C901.460876,346.867615 913.989868,338.328705 922.614563,323.704285 
	C916.863831,319.499542 911.422546,315.521027 906.009888,311.563416 
	C891.552551,329.199188 875.457458,334.560547 858.465332,327.717346 
	C846.491943,322.895294 838.165588,311.503632 838.992065,300.632812 
	C867.223206,300.632812 895.488037,300.632812 923.637024,300.632812 
	C931.148193,273.676849 912.921631,244.371078 884.026550,237.428238 
M534.207397,286.963104 
	C532.781067,266.019287 523.716736,249.633209 504.098724,241.108871 
	C483.408844,232.118774 463.170715,234.524200 445.146454,248.284286 
	C423.703735,264.654114 417.652924,297.238983 430.710083,322.129822 
	C443.292755,346.116180 472.153015,357.583344 499.237793,349.321747 
	C513.334045,345.021973 524.377380,336.846832 531.894348,323.643066 
	C526.196777,319.483124 520.768311,315.519714 515.376709,311.583160 
	C500.595001,329.566559 484.106659,334.774109 466.845947,327.278076 
	C455.285339,322.257538 447.255585,310.796844 448.458527,300.690063 
	C472.890167,300.690063 497.357910,300.690063 521.825684,300.690063 
	C534.366577,300.690063 534.366577,300.690063 534.207397,286.963104 
M658.172546,273.316437 
	C655.752747,257.013062 647.628784,244.713150 631.696716,239.442947 
	C612.237793,233.006134 593.952332,234.738388 578.350708,251.772385 
	C578.350708,246.744537 578.350708,242.738190 578.350708,238.796997 
	C570.425659,238.796997 563.164673,238.796997 555.760925,238.796997 
	C555.760925,275.768921 555.760925,312.468109 555.760925,349.376404 
	C563.315796,349.376404 570.559509,349.376404 578.279114,349.376404 
	C578.279114,347.528870 578.279114,345.903046 578.279175,344.277222 
	C578.279663,325.291870 578.201904,306.306091 578.308533,287.321320 
	C578.377380,275.071014 583.523438,265.779419 595.051086,260.746002 
	C602.810608,257.357910 610.884155,256.979218 618.972107,259.501129 
	C629.713989,262.850525 635.873535,272.404114 635.960754,286.115875 
	C636.083679,305.433533 635.993652,324.752533 635.994751,344.070953 
	C635.994873,345.813232 635.994751,347.555511 635.994751,349.305237 
	C643.987427,349.305237 651.244446,349.305237 658.871826,349.305237 
	C658.871826,332.720795 658.936401,316.431488 658.845703,300.143066 
	C658.797546,291.493439 658.479919,282.845306 658.172546,273.316437 
M984.002991,239.371552 
	C979.303223,243.270493 974.603516,247.169449 969.818542,251.139114 
	C969.818542,247.219284 969.818542,243.100693 969.818542,238.817230 
	C962.110535,238.817230 954.692017,238.817230 947.356689,238.817230 
	C947.356689,275.823151 947.356689,312.539185 947.356689,349.347076 
	C954.975769,349.347076 962.242493,349.347076 969.981934,349.347076 
	C969.981934,347.314392 969.981079,345.528900 969.982117,343.743439 
	C969.992676,324.752563 969.740112,305.756927 970.085449,286.772125 
	C970.460083,266.181244 984.220337,254.874817 1004.397400,258.059601 
	C1006.662109,258.417084 1008.874329,259.106842 1011.563721,259.750946 
	C1012.358459,252.714691 1013.129028,245.892609 1013.882935,239.217941 
	C1003.827942,235.210983 994.700867,235.225662 984.002991,239.371552 
z"/>
<path fill="#020202" opacity="1.000000" stroke="none" 
	d="
M10.997158,303.000000 
	C10.997158,284.356720 10.997158,266.213470 10.997158,247.159607 
	C13.076779,247.898560 14.582693,248.303879 15.978124,248.948395 
	C55.050900,266.994995 97.763893,244.501816 105.263351,201.911072 
	C109.663994,176.919083 128.661743,160.672592 153.096542,161.005112 
	C177.549286,161.337875 198.194427,182.106766 198.796921,206.979431 
	C199.398041,231.795486 180.279358,253.415466 155.940659,254.995071 
	C147.309860,255.555222 138.618912,255.190384 129.955399,255.243927 
	C114.766373,255.337830 104.947777,265.118408 104.923698,280.294769 
	C104.887482,303.115997 104.914268,325.937286 104.914268,349.174500 
	C73.676537,349.174500 42.640961,349.174500 10.997158,349.174500 
	C10.997158,334.014191 10.997158,318.757111 10.997158,303.000000 
z"/>
<path fill="#030303" opacity="1.000000" stroke="none" 
	d="
M376.894287,324.172424 
	C370.590210,313.168884 364.350220,302.549225 358.386383,291.776672 
	C356.824799,288.955994 355.172638,287.775513 351.822784,287.846313 
	C340.384583,288.088013 328.938141,287.938873 317.044098,287.938873 
	C317.044098,298.547913 317.044098,308.663544 317.044098,318.779205 
	C317.044098,328.894196 317.044098,339.009186 317.044098,349.343201 
	C308.821991,349.343201 301.071533,349.343201 293.107880,349.343201 
	C293.107880,297.174164 293.107880,245.257004 293.107880,192.996719 
	C294.364624,192.880508 295.622284,192.663910 296.880127,192.662872 
	C317.866852,192.645355 338.853638,192.679840 359.840302,192.647156 
	C369.621674,192.631927 379.146606,194.017487 387.984314,198.345200 
	C404.334045,206.351486 412.496338,219.796524 413.192047,237.806992 
	C413.924622,256.772369 406.399963,271.394562 389.746185,280.953522 
	C387.328125,282.341461 384.727112,283.410736 381.825592,284.813690 
	C394.295471,306.217773 406.668274,327.455231 419.547791,349.562439 
	C410.166016,349.562439 401.459137,349.661377 392.760956,349.430817 
	C391.732910,349.403564 390.488678,347.726501 389.793457,346.549194 
	C385.478210,339.241272 381.291138,331.857697 376.894287,324.172424 
M363.603058,214.745224 
	C348.160126,214.745224 332.717224,214.745224 317.276489,214.745224 
	C317.276489,232.003799 317.276489,248.930481 317.276489,265.927521 
	C333.322113,265.927521 349.127991,266.420013 364.885773,265.761475 
	C376.163666,265.290161 384.277344,258.177582 387.000458,248.484299 
	C391.909912,231.008194 382.700348,217.248642 363.603058,214.745224 
z"/>
<path fill="#030303" opacity="1.000000" stroke="none" 
	d="
M683.743042,321.229523 
	C675.995117,303.922089 675.311157,286.609772 682.217163,269.419525 
	C696.396545,234.124802 743.505676,224.622971 770.645508,251.338943 
	C770.952637,251.641312 771.350769,251.851273 772.346313,252.559738 
	C772.346313,230.427765 772.346313,208.900879 772.346313,187.070770 
	C780.106812,187.070770 787.351501,187.070770 794.945496,187.070770 
	C794.945496,241.047348 794.945496,295.066406 794.945496,349.340027 
	C787.618713,349.340027 780.378418,349.340027 772.544800,349.340027 
	C772.544800,344.848999 772.544800,340.472809 772.544800,334.902222 
	C757.685730,350.987854 740.052124,354.400269 720.698364,350.426575 
	C703.834412,346.964050 691.689148,336.902863 683.743042,321.229523 
M720.757019,327.959320 
	C734.148376,333.493744 746.938110,332.483459 758.342712,323.375671 
	C770.036621,314.036804 773.930664,301.285370 771.783447,286.795074 
	C769.518677,271.511780 757.868286,260.107361 742.483154,257.350372 
	C727.448425,254.656189 712.896179,261.049347 705.609619,273.549866 
	C694.608948,292.422241 701.124329,316.795563 720.757019,327.959320 
z"/>
<path fill="#060606" opacity="1.000000" stroke="none" 
	d="
M884.428711,237.543182 
	C912.921631,244.371078 931.148193,273.676849 923.637024,300.632812 
	C895.488037,300.632812 867.223206,300.632812 838.992065,300.632812 
	C838.165588,311.503632 846.491943,322.895294 858.465332,327.717346 
	C875.457458,334.560547 891.552551,329.199188 906.009888,311.563416 
	C911.422546,315.521027 916.863831,319.499542 922.614563,323.704285 
	C913.989868,338.328705 901.460876,346.867615 885.457153,350.482910 
	C859.613770,356.320984 833.469055,344.806641 821.533569,322.495239 
	C809.059937,299.177643 813.524292,268.650909 832.440674,251.111786 
	C847.091370,237.527679 864.716003,234.020889 884.428711,237.543182 
M882.499634,283.466827 
	C888.795959,283.466827 895.092224,283.466827 901.407288,283.466827 
	C900.515503,267.940887 887.322876,256.707123 870.847656,256.923798 
	C854.548889,257.138214 839.892822,269.401062 839.578857,283.466858 
	C853.555786,283.466858 867.527649,283.466858 882.499634,283.466827 
z"/>
<path fill="#060606" opacity="1.000000" stroke="none" 
	d="
M534.226440,287.399353 
	C534.366577,300.690063 534.366577,300.690063 521.825684,300.690063 
	C497.357910,300.690063 472.890167,300.690063 448.458527,300.690063 
	C447.255585,310.796844 455.285339,322.257538 466.845947,327.278076 
	C484.106659,334.774109 500.595001,329.566559 515.376709,311.583160 
	C520.768311,315.519714 526.196777,319.483124 531.894348,323.643066 
	C524.377380,336.846832 513.334045,345.021973 499.237793,349.321747 
	C472.153015,357.583344 443.292755,346.116180 430.710083,322.129822 
	C417.652924,297.238983 423.703735,264.654114 445.146454,248.284286 
	C463.170715,234.524200 483.408844,232.118774 504.098724,241.108871 
	C523.716736,249.633209 532.781067,266.019287 534.226440,287.399353 
M451.042664,274.812256 
	C450.097687,277.495697 449.152740,280.179169 448.095245,283.182220 
	C469.631378,283.182220 490.175629,283.182220 511.041138,283.182220 
	C510.049988,273.847687 505.738342,266.903198 498.258820,261.986755 
	C482.543915,251.657013 461.259918,257.211609 451.042664,274.812256 
z"/>
<path fill="#050505" opacity="1.000000" stroke="none" 
	d="
M658.228271,273.756470 
	C658.479919,282.845306 658.797546,291.493439 658.845703,300.143066 
	C658.936401,316.431488 658.871826,332.720795 658.871826,349.305237 
	C651.244446,349.305237 643.987427,349.305237 635.994751,349.305237 
	C635.994751,347.555511 635.994873,345.813232 635.994751,344.070953 
	C635.993652,324.752533 636.083679,305.433533 635.960754,286.115875 
	C635.873535,272.404114 629.713989,262.850525 618.972107,259.501129 
	C610.884155,256.979218 602.810608,257.357910 595.051086,260.746002 
	C583.523438,265.779419 578.377380,275.071014 578.308533,287.321320 
	C578.201904,306.306091 578.279663,325.291870 578.279175,344.277222 
	C578.279114,345.903046 578.279114,347.528870 578.279114,349.376404 
	C570.559509,349.376404 563.315796,349.376404 555.760925,349.376404 
	C555.760925,312.468109 555.760925,275.768921 555.760925,238.796997 
	C563.164673,238.796997 570.425659,238.796997 578.350708,238.796997 
	C578.350708,242.738190 578.350708,246.744537 578.350708,251.772385 
	C593.952332,234.738388 612.237793,233.006134 631.696716,239.442947 
	C647.628784,244.713150 655.752747,257.013062 658.228271,273.756470 
z"/>
<path fill="#050505" opacity="1.000000" stroke="none" 
	d="
M984.349487,239.214935 
	C994.700867,235.225662 1003.827942,235.210983 1013.882935,239.217941 
	C1013.129028,245.892609 1012.358459,252.714691 1011.563721,259.750946 
	C1008.874329,259.106842 1006.662109,258.417084 1004.397400,258.059601 
	C984.220337,254.874817 970.460083,266.181244 970.085449,286.772125 
	C969.740112,305.756927 969.992676,324.752563 969.982117,343.743439 
	C969.981079,345.528900 969.981934,347.314392 969.981934,349.347076 
	C962.242493,349.347076 954.975769,349.347076 947.356689,349.347076 
	C947.356689,312.539185 947.356689,275.823151 947.356689,238.817230 
	C954.692017,238.817230 962.110535,238.817230 969.818542,238.817230 
	C969.818542,243.100693 969.818542,247.219284 969.818542,251.139114 
	C974.603516,247.169449 979.303223,243.270493 984.349487,239.214935 
z"/>
<path fill="#FCFCFC" opacity="1.000000" stroke="none" 
	d="
M364.041687,214.791656 
	C382.700348,217.248642 391.909912,231.008194 387.000458,248.484299 
	C384.277344,258.177582 376.163666,265.290161 364.885773,265.761475 
	C349.127991,266.420013 333.322113,265.927521 317.276489,265.927521 
	C317.276489,248.930481 317.276489,232.003799 317.276489,214.745224 
	C332.717224,214.745224 348.160126,214.745224 364.041687,214.791656 
z"/>
<path fill="#FDFDFD" opacity="1.000000" stroke="none" 
	d="
M720.413086,327.800293 
	C701.124329,316.795563 694.608948,292.422241 705.609619,273.549866 
	C712.896179,261.049347 727.448425,254.656189 742.483154,257.350372 
	C757.868286,260.107361 769.518677,271.511780 771.783447,286.795074 
	C773.930664,301.285370 770.036621,314.036804 758.342712,323.375671 
	C746.938110,332.483459 734.148376,333.493744 720.413086,327.800293 
z"/>
<path fill="#FCFCFC" opacity="1.000000" stroke="none" 
	d="
M881.999512,283.466858 
	C867.527649,283.466858 853.555786,283.466858 839.578857,283.466858 
	C839.892822,269.401062 854.548889,257.138214 870.847656,256.923798 
	C887.322876,256.707123 900.515503,267.940887 901.407288,283.466827 
	C895.092224,283.466827 888.795959,283.466827 881.999512,283.466858 
z"/>
<path fill="#FCFCFC" opacity="1.000000" stroke="none" 
	d="
M451.205261,274.462250 
	C461.259918,257.211609 482.543915,251.657013 498.258820,261.986755 
	C505.738342,266.903198 510.049988,273.847687 511.041138,283.182220 
	C490.175629,283.182220 469.631378,283.182220 448.095245,283.182220 
	C449.152740,280.179169 450.097687,277.495697 451.205261,274.462250 
z"/>
</svg>